<svg width="46" height="46" viewBox="0 0 46 46" fill="none" xmlns="http://www.w3.org/2000/svg">
<rect y="6" width="40" height="40" rx="8" fill="#7A94B8"/>
<path d="M8.25662 21.242C9.32063 21.242 10.24 21.4427 11.0146 21.844C11.7986 22.236 12.396 22.8007 12.8066 23.538C13.2266 24.2753 13.4366 25.1433 13.4366 26.142C13.4366 27.1407 13.2266 28.0087 12.8066 28.746C12.396 29.474 11.7986 30.034 11.0146 30.426C10.24 30.8087 9.32063 31 8.25662 31H5.21863V21.242H8.25662ZM8.25662 29.95C9.51663 29.95 10.478 29.6187 11.1406 28.956C11.8033 28.284 12.1346 27.346 12.1346 26.142C12.1346 24.9287 11.7986 23.9813 11.1266 23.3C10.464 22.6187 9.50729 22.278 8.25662 22.278H6.49263V29.95H8.25662ZM19.5411 31.098C18.6357 31.098 17.8097 30.888 17.0631 30.468C16.3164 30.0387 15.7237 29.446 15.2851 28.69C14.8557 27.9247 14.6411 27.066 14.6411 26.114C14.6411 25.162 14.8557 24.308 15.2851 23.552C15.7237 22.7867 16.3164 22.194 17.0631 21.774C17.8097 21.3447 18.6357 21.13 19.5411 21.13C20.4557 21.13 21.2864 21.3447 22.0331 21.774C22.7797 22.194 23.3677 22.782 23.7971 23.538C24.2264 24.294 24.4411 25.1527 24.4411 26.114C24.4411 27.0753 24.2264 27.934 23.7971 28.69C23.3677 29.446 22.7797 30.0387 22.0331 30.468C21.2864 30.888 20.4557 31.098 19.5411 31.098ZM19.5411 29.992C20.2224 29.992 20.8337 29.8333 21.3751 29.516C21.9257 29.1987 22.3551 28.746 22.6631 28.158C22.9804 27.57 23.1391 26.8887 23.1391 26.114C23.1391 25.33 22.9804 24.6487 22.6631 24.07C22.3551 23.482 21.9304 23.0293 21.3891 22.712C20.8477 22.3947 20.2317 22.236 19.5411 22.236C18.8504 22.236 18.2344 22.3947 17.6931 22.712C17.1517 23.0293 16.7224 23.482 16.4051 24.07C16.0971 24.6487 15.9431 25.33 15.9431 26.114C15.9431 26.8887 16.0971 27.57 16.4051 28.158C16.7224 28.746 17.1517 29.1987 17.6931 29.516C18.2437 29.8333 18.8597 29.992 19.5411 29.992ZM25.6469 26.114C25.6469 25.162 25.8616 24.308 26.2909 23.552C26.7203 22.7867 27.3036 22.1893 28.0409 21.76C28.7876 21.3307 29.6136 21.116 30.5189 21.116C31.5829 21.116 32.5116 21.3727 33.3049 21.886C34.0983 22.3993 34.6769 23.1273 35.0409 24.07H33.5149C33.2443 23.482 32.8523 23.0293 32.3389 22.712C31.8349 22.3947 31.2283 22.236 30.5189 22.236C29.8376 22.236 29.2263 22.3947 28.6849 22.712C28.1436 23.0293 27.7189 23.482 27.4109 24.07C27.1029 24.6487 26.9489 25.33 26.9489 26.114C26.9489 26.8887 27.1029 27.57 27.4109 28.158C27.7189 28.7367 28.1436 29.1847 28.6849 29.502C29.2263 29.8193 29.8376 29.978 30.5189 29.978C31.2283 29.978 31.8349 29.824 32.3389 29.516C32.8523 29.1987 33.2443 28.746 33.5149 28.158H35.0409C34.6769 29.0913 34.0983 29.8147 33.3049 30.328C32.5116 30.832 31.5829 31.084 30.5189 31.084C29.6136 31.084 28.7876 30.874 28.0409 30.454C27.3036 30.0247 26.7203 29.432 26.2909 28.676C25.8616 27.92 25.6469 27.066 25.6469 26.114Z" fill="white"/>
<rect x="26" width="20" height="20" rx="10" fill="#FFC801"/>
<path d="M39 8C39.8284 8 40.5 7.32843 40.5 6.5C40.5 5.67157 39.8284 5 39 5C38.1716 5 37.5 5.67157 37.5 6.5C37.5 7.32843 38.1716 8 39 8Z" stroke="#29313D" stroke-linecap="round" stroke-linejoin="round"/>
<path d="M33 11.5C33.8284 11.5 34.5 10.8284 34.5 10C34.5 9.17157 33.8284 8.5 33 8.5C32.1716 8.5 31.5 9.17157 31.5 10C31.5 10.8284 32.1716 11.5 33 11.5Z" stroke="#29313D" stroke-linecap="round" stroke-linejoin="round"/>
<path d="M39 15C39.8284 15 40.5 14.3284 40.5 13.5C40.5 12.6716 39.8284 12 39 12C38.1716 12 37.5 12.6716 37.5 13.5C37.5 14.3284 38.1716 15 39 15Z" stroke="#29313D" stroke-linecap="round" stroke-linejoin="round"/>
<path d="M34.295 10.755L37.71 12.745" stroke="#29313D" stroke-linecap="round" stroke-linejoin="round"/>
<path d="M37.705 7.255L34.295 9.245" stroke="#29313D" stroke-linecap="round" stroke-linejoin="round"/>
</svg>
