<svg width="40" height="40" viewBox="0 0 40 40" fill="none" xmlns="http://www.w3.org/2000/svg">
<rect width="40" height="40" rx="8" fill="#7A94B8"/>
<path d="M13.2781 15.242V22.452C13.2781 23.2547 13.0308 23.8987 12.5361 24.384C12.0415 24.86 11.3881 25.098 10.5761 25.098C9.7548 25.098 9.0968 24.8553 8.60213 24.37C8.10747 23.8753 7.86013 23.2033 7.86013 22.354H9.13413C9.14347 22.83 9.2648 23.2173 9.49813 23.516C9.7408 23.8147 10.1001 23.964 10.5761 23.964C11.0521 23.964 11.4068 23.824 11.6401 23.544C11.8735 23.2547 11.9901 22.8907 11.9901 22.452V15.242H13.2781ZM22.312 18.098C22.312 18.91 22.032 19.5867 21.472 20.128C20.9213 20.66 20.0766 20.926 18.938 20.926H17.062V25H15.788V15.242H18.938C20.0393 15.242 20.8746 15.508 21.444 16.04C22.0226 16.572 22.312 17.258 22.312 18.098ZM18.938 19.876C19.6473 19.876 20.17 19.722 20.506 19.414C20.842 19.106 21.01 18.6673 21.01 18.098C21.01 16.894 20.3193 16.292 18.938 16.292H17.062V19.876H18.938ZM31.2874 18.07C31.0167 17.5007 30.6247 17.062 30.1114 16.754C29.598 16.4367 29.0007 16.278 28.3194 16.278C27.638 16.278 27.022 16.4367 26.4714 16.754C25.93 17.062 25.5007 17.51 25.1834 18.098C24.8754 18.6767 24.7214 19.3487 24.7214 20.114C24.7214 20.8793 24.8754 21.5513 25.1834 22.13C25.5007 22.7087 25.93 23.1567 26.4714 23.474C27.022 23.782 27.638 23.936 28.3194 23.936C29.2714 23.936 30.0554 23.6513 30.6714 23.082C31.2874 22.5127 31.6467 21.7427 31.7494 20.772H27.8574V19.736H33.1074V20.716C33.0327 21.5187 32.7807 22.256 32.3514 22.928C31.9221 23.5907 31.3574 24.118 30.6574 24.51C29.9574 24.8927 29.178 25.084 28.3194 25.084C27.414 25.084 26.588 24.874 25.8414 24.454C25.0947 24.0247 24.502 23.432 24.0634 22.676C23.634 21.92 23.4194 21.066 23.4194 20.114C23.4194 19.162 23.634 18.308 24.0634 17.552C24.502 16.7867 25.0947 16.194 25.8414 15.774C26.588 15.3447 27.414 15.13 28.3194 15.13C29.3554 15.13 30.27 15.3867 31.0634 15.9C31.866 16.4133 32.4494 17.1367 32.8134 18.07H31.2874Z" fill="white"/>
</svg>
