<svg width="228" height="60" viewBox="0 0 228 60" fill="none" xmlns="http://www.w3.org/2000/svg">
<path d="M54.833 30L48.1663 16.6666L41.4997 30L48.1663 43.3333L54.833 30Z" stroke="#7A94B8" stroke-width="3" stroke-linecap="round" stroke-linejoin="round"/>
<path d="M34.833 16.6666L28.1663 30L34.833 43.3333" stroke="#7A94B8" stroke-width="3" stroke-linecap="round" stroke-linejoin="round"/>
<path d="M41.5 16.6666L34.8333 30L41.5 43.3333" stroke="#7A94B8" stroke-width="3" stroke-linecap="round" stroke-linejoin="round"/>
<path d="M77.7478 36.744H68.8518L67.3798 41H62.6758L70.7078 18.632H75.9238L83.9558 41H79.2198L77.7478 36.744ZM76.5318 33.16L73.2998 23.816L70.0677 33.16H76.5318ZM91.438 17.32V41H86.958V17.32H91.438ZM101.08 26.952V35.528C101.08 36.1253 101.219 36.5627 101.496 36.84C101.795 37.096 102.286 37.224 102.968 37.224H105.048V41H102.232C98.4563 41 96.5683 39.1653 96.5683 35.496V26.952H94.4563V23.272H96.5683V18.888H101.08V23.272H105.048V26.952H101.08ZM124.751 31.752C124.751 32.392 124.708 32.968 124.623 33.48H111.663C111.769 34.76 112.217 35.7627 113.007 36.488C113.796 37.2133 114.767 37.576 115.919 37.576C117.583 37.576 118.767 36.8613 119.471 35.432H124.303C123.791 37.1387 122.809 38.5467 121.359 39.656C119.908 40.744 118.127 41.288 116.015 41.288C114.308 41.288 112.772 40.9147 111.407 40.168C110.063 39.4 109.007 38.3227 108.239 36.936C107.492 35.5493 107.118 33.9493 107.118 32.136C107.118 30.3013 107.492 28.6907 108.239 27.304C108.985 25.9173 110.031 24.8507 111.375 24.104C112.719 23.3573 114.265 22.984 116.015 22.984C117.7 22.984 119.204 23.3467 120.527 24.072C121.871 24.7973 122.905 25.832 123.631 27.176C124.377 28.4987 124.751 30.024 124.751 31.752ZM120.111 30.472C120.089 29.32 119.673 28.4027 118.863 27.72C118.052 27.016 117.06 26.664 115.887 26.664C114.777 26.664 113.839 27.0053 113.071 27.688C112.324 28.3493 111.865 29.2773 111.695 30.472H120.111ZM132.501 26.024C133.077 25.0853 133.823 24.3493 134.741 23.816C135.679 23.2827 136.746 23.016 137.941 23.016V27.72H136.757C135.349 27.72 134.282 28.0507 133.557 28.712C132.853 29.3733 132.501 30.5253 132.501 32.168V41H128.021V23.272H132.501V26.024ZM139.806 32.072C139.806 30.28 140.158 28.6907 140.862 27.304C141.587 25.9173 142.558 24.8507 143.774 24.104C145.011 23.3573 146.387 22.984 147.902 22.984C149.225 22.984 150.377 23.2507 151.358 23.784C152.361 24.3173 153.161 24.9893 153.758 25.8V23.272H158.27V41H153.758V38.408C153.182 39.24 152.382 39.9333 151.358 40.488C150.355 41.0213 149.193 41.288 147.87 41.288C146.377 41.288 145.011 40.904 143.774 40.136C142.558 39.368 141.587 38.2907 140.862 36.904C140.158 35.496 139.806 33.8853 139.806 32.072ZM153.758 32.136C153.758 31.048 153.545 30.12 153.118 29.352C152.691 28.5627 152.115 27.9653 151.39 27.56C150.665 27.1333 149.886 26.92 149.054 26.92C148.222 26.92 147.454 27.1227 146.75 27.528C146.046 27.9333 145.47 28.5307 145.022 29.32C144.595 30.088 144.382 31.0053 144.382 32.072C144.382 33.1387 144.595 34.0773 145.022 34.888C145.47 35.6773 146.046 36.2853 146.75 36.712C147.475 37.1387 148.243 37.352 149.054 37.352C149.886 37.352 150.665 37.1493 151.39 36.744C152.115 36.3173 152.691 35.72 153.118 34.952C153.545 34.1627 153.758 33.224 153.758 32.136ZM167.862 26.952V35.528C167.862 36.1253 168 36.5627 168.278 36.84C168.576 37.096 169.067 37.224 169.75 37.224H171.83V41H169.014C165.238 41 163.35 39.1653 163.35 35.496V26.952H161.238V23.272H163.35V18.888H167.862V23.272H171.83V26.952H167.862ZM177.324 21.16C176.534 21.16 175.873 20.9147 175.34 20.424C174.828 19.912 174.572 19.2827 174.572 18.536C174.572 17.7893 174.828 17.1707 175.34 16.68C175.873 16.168 176.534 15.912 177.324 15.912C178.113 15.912 178.764 16.168 179.276 16.68C179.809 17.1707 180.076 17.7893 180.076 18.536C180.076 19.2827 179.809 19.912 179.276 20.424C178.764 20.9147 178.113 21.16 177.324 21.16ZM179.532 23.272V41H175.052V23.272H179.532ZM191.83 41.288C190.123 41.288 188.587 40.9147 187.222 40.168C185.857 39.4 184.779 38.3227 183.99 36.936C183.222 35.5493 182.838 33.9493 182.838 32.136C182.838 30.3227 183.233 28.7227 184.022 27.336C184.833 25.9493 185.931 24.8827 187.318 24.136C188.705 23.368 190.251 22.984 191.958 22.984C193.665 22.984 195.211 23.368 196.598 24.136C197.985 24.8827 199.073 25.9493 199.862 27.336C200.673 28.7227 201.078 30.3227 201.078 32.136C201.078 33.9493 200.662 35.5493 199.83 36.936C199.019 38.3227 197.91 39.4 196.502 40.168C195.115 40.9147 193.558 41.288 191.83 41.288ZM191.83 37.384C192.641 37.384 193.398 37.192 194.102 36.808C194.827 36.4027 195.403 35.8053 195.83 35.016C196.257 34.2267 196.47 33.2667 196.47 32.136C196.47 30.4507 196.022 29.16 195.126 28.264C194.251 27.3467 193.174 26.888 191.894 26.888C190.614 26.888 189.537 27.3467 188.662 28.264C187.809 29.16 187.382 30.4507 187.382 32.136C187.382 33.8213 187.798 35.1227 188.63 36.04C189.483 36.936 190.55 37.384 191.83 37.384Z" fill="#FF8A00"/>
</svg>
