<svg width="46" height="46" viewBox="0 0 46 46" fill="none" xmlns="http://www.w3.org/2000/svg">
<rect width="40" height="40" rx="8" fill="#7A94B8"/>
<path d="M15.1621 15.242V16.278H12.5021V25H11.2281V16.278H8.55413V15.242H15.1621ZM20.7203 20.128L23.7163 25H22.2743L19.9363 21.192L17.7103 25H16.2963L19.2783 20.128L16.2823 15.242H17.7103L20.0623 19.064L22.3023 15.242H23.7303L20.7203 20.128ZM31.4317 15.242V16.278H28.7717V25H27.4977V16.278H24.8237V15.242H31.4317Z" fill="white"/>
<rect x="26" y="26" width="20" height="20" rx="10" fill="#16D278"/>
<path d="M39.5 35.5H32.5C31.9477 35.5 31.5 35.9477 31.5 36.5V40C31.5 40.5523 31.9477 41 32.5 41H39.5C40.0523 41 40.5 40.5523 40.5 40V36.5C40.5 35.9477 40.0523 35.5 39.5 35.5Z" stroke="white" stroke-linecap="round" stroke-linejoin="round"/>
<path d="M33.5 35.5V33.5C33.5 32.837 33.7634 32.2011 34.2322 31.7322C34.7011 31.2634 35.337 31 36 31C36.663 31 37.2989 31.2634 37.7678 31.7322C38.2366 32.2011 38.5 32.837 38.5 33.5V35.5" stroke="white" stroke-linecap="round" stroke-linejoin="round"/>
</svg>
